PathFileType	3	(X/Y/Z)	D:\Vicon Database\Healthy Subjects\S0040\Jan. 30, 2020\Force Plate Walk 7.trc
DataRate	CameraRate	NumFrames	NumMarkers	Units	OrigDataRate	OrigDataStartFrame	OrigNumFrames
100.0	100.0	7	53	mm	100.0	393	319	
Frame#	Time	sternum_cluster1			sternum_cluster2			sternum_cluster3			left_asis			right_asis			left_psis			right_psis			sacrum_cluster1			sacrum_cluster2			sacrum_cluster3			left_lat_femoral_epicondyle			left_anterior_thigh15			left_anterior_thigh25			left_anterior_thigh50			left_lateral_thigh25			left_lateral_thigh50			left_thigh_cluster1			left_thigh_cluster2			left_thigh_cluster3			left_fibular_head			left_tibial_tuberosity			left_anterior_shank30			left_lateral_malleolus			left_shank_cluster1			left_shank_cluster2			left_shank_cluster3			left_heel			left_metatarsal2			left_foot_cluster1			left_foot_cluster2			left_foot_cluster3			right_lat_femoral_epicondyle			right_anterior_thigh15			right_anterior_thigh25			right_anterior_thigh50			right_lateral_thigh25			right_lateral_thigh50			right_thigh_cluster1			right_thigh_cluster2			right_thigh_cluster3			right_fibular_head			right_tibial_tuberosity			right_lateral_distal_shank			right_anterior_shank30			right_lateral_malleolus			right_shank_cluster1			right_shank_cluster2			right_shank_cluster3			right_heel			right_metatarsal2			right_foot_cluster1			right_foot_cluster2			right_foot_cluster3			
		X1	Y1	Z1	X2	Y2	Z2	X3	Y3	Z3	X4	Y4	Z4	X5	Y5	Z5	X6	Y6	Z6	X7	Y7	Z7	X8	Y8	Z8	X9	Y9	Z9	X10	Y10	Z10	X11	Y11	Z11	X12	Y12	Z12	X13	Y13	Z13	X14	Y14	Z14	X15	Y15	Z15	X16	Y16	Z16	X17	Y17	Z17	X18	Y18	Z18	X19	Y19	Z19	X20	Y20	Z20	X21	Y21	Z21	X22	Y22	Z22	X23	Y23	Z23	X24	Y24	Z24	X25	Y25	Z25	X26	Y26	Z26	X27	Y27	Z27	X28	Y28	Z28	X29	Y29	Z29	X30	Y30	Z30	X31	Y31	Z31	X32	Y32	Z32	X33	Y33	Z33	X34	Y34	Z34	X35	Y35	Z35	X36	Y36	Z36	X37	Y37	Z37	X38	Y38	Z38	X39	Y39	Z39	X40	Y40	Z40	X41	Y41	Z41	X42	Y42	Z42	X43	Y43	Z43	X44	Y44	Z44	X45	Y45	Z45	X46	Y46	Z46	X47	Y47	Z47	X48	Y48	Z48	X49	Y49	Z49	X50	Y50	Z50	X51	Y51	Z51	X52	Y52	Z52	X53	Y53	Z53	
393	3.92	1470.8677	1451.953	-136.4081	1458.3619	1424.401	-128.74147	1463.0498	1426.8313	-166.62875	1475.942	1076.2163	-11.311992	1489.4645	1077.671	-261.20456	1644.2609	1090.5204	-52.736702	1652.5302	1089.4163	-170.10405	1655.8062	1147.3729	-119.0948	1664.3889	1122.3263	-129.63391	1664.5756	1118.2155	-90.405846	1498.807	544.02759	0.20237932	1415.4836	632.01428	-57.317753	1405.0629	717.56793	-38.269581	1417.1284	854.61969	-12.645145	1510.1379	696.46326	27.168306	1513.2686	844.05804	58.266422	1514.0618	796.73206	62.815331	1514.3713	767.11725	58.218174	1478.7103	779.01587	60.307034	1495.871	462.95966	3.316745	1447.462	453.94254	-58.084713	1500.3445	205.5386	-73.206238	1565.1217	98.992088	-42.348091	1457.2444	399.18311	-87.569633	1454.1968	371.48596	-80.469116	1474.5204	374.46021	-113.61593	1641.2054	65.027344	-75.662354	1422.2328	69.597412	-81.818314	1483.3046	117.04349	-75.950607	1458.6367	101.94232	-65.759789	1455.6591	105.92652	-103.91429	1405.0343	548.72681	-286.53741	1336.9156	645.96179	-234.47847	1350.5624	729.98755	-228.8414	1399.952	853.20343	-229.68407	1451.4327	695.02655	-299.76605	1505.3525	834.39282	-317.06104	1492.6752	783.65515	-325.38708	1474.2803	761.63281	-323.90842	1509.229	748.96375	-314.2821	1431.4026	494.02045	-292.45648	1388.7881	458.99582	-245.52599	1613.3069	301.39563	-271.02563	1569.5602	282.01254	-225.07762	1681.9237	221.38652	-256.30438	1441.8295	412.03122	-187.26868	1464.3267	395.33804	-180.60577	1448.087	379.25632	-210.21539	1760.7087	243.97813	-217.94312	1595.2229	101.7621	-217.04021	1603.9733	172.24741	-216.4258	1597.1943	145.33018	-207.69502	1594.2462	148.17047	-244.91736
394	3.93	1456.2805	1453.775	-136.66006	1443.8694	1426.0771	-129.05174	1448.7469	1428.443	-166.93001	1462.2878	1077.2653	-10.903136	1475.5487	1080.5485	-260.36096	1630.6259	1092.8641	-52.824738	1638.7059	1092.2612	-170.22107	1642.3259	1150.2555	-118.63642	1650.8337	1125.083	-129.47729	1650.8922	1120.7417	-90.221077	1496.2028	544.62677	-0.49693307	1410.9048	630.4632	-57.440281	1397.7745	715.84778	-38.128159	1406.6442	853.41589	-12.233799	1504.0739	697.12286	26.317707	1503.8168	844.48303	57.74715	1505.3846	797.57159	62.461372	1507.2657	768.29437	57.66758	1470.469	779.05475	59.459225	1494.5569	463.46802	2.9081688	1445.4305	453.75687	-57.782063	1499.222	205.87843	-73.226021	1564.9097	99.389877	-42.79636	1454.7896	399.17557	-87.15242	1452.8807	371.13739	-79.928925	1471.4198	374.6268	-113.64708	1640.9233	65.318787	-75.961227	1421.964	69.351318	-81.96534	1482.9755	117.03571	-76.175827	1458.3354	101.78487	-65.772896	1455.3704	105.89469	-104.0029	1383.1046	554.29889	-287.12833	1316.4298	653.48828	-235.43781	1331.9326	737.37866	-229.77005	1384.5057	859.0304	-229.68771	1432.2084	700.20667	-300.74881	1489.1794	838.78833	-318.09836	1475.8783	788.03961	-325.98798	1456.326	766.3681	-324.61194	1491.7903	752.99939	-315.24078	1408.4489	498.90674	-292.27002	1363.0809	465.00879	-246.85094	1580.488	296.9104	-270.66904	1534.5253	279.06152	-225.68732	1644.3959	212.19464	-255.60063	1412.6714	414.81366	-188.77174	1434.3873	396.86377	-181.9581	1417.4525	382.01999	-211.82489	1724.4196	230.07835	-216.17168	1548.8424	99.440201	-217.85115	1562.7263	169.1244	-217.25877	1552.0592	143.69231	-208.44382	1551.2001	145.90869	-245.84857
395	3.94	1441.7128	1455.2028	-136.82469	1429.329	1427.558	-129.16052	1434.3351	1429.9205	-167.09166	1448.5597	1078.0775	-10.636016	1461.7086	1083.0396	-259.58591	1616.6954	1094.9031	-52.952229	1624.965	1094.7449	-170.2449	1628.533	1151.902	-118.36901	1637.3737	1127.3959	-129.1825	1637.0929	1122.6359	-90.055206	1493.4897	545.25446	-1.0486207	1405.9308	629.05133	-57.282196	1390.5328	714.20593	-37.767509	1396.1804	852.12579	-11.725549	1498.0385	697.86786	25.589676	1494.16	844.99493	57.152061	1497.4926	798.12012	61.437202	1499.6729	769.03461	56.854542	1462.851	779.05292	59.42849	1493.1149	464.10431	2.6344054	1443.2428	453.70047	-57.444786	1498.2611	206.29057	-73.007713	1564.5897	99.767189	-43.173553	1452.9849	399.06976	-86.87262	1451.2239	371.01892	-79.562469	1468.946	374.62671	-113.5052	1640.7023	65.501099	-76.172646	1421.7053	69.05825	-82.116966	1482.5968	116.9989	-76.364502	1458.0491	101.6723	-65.994164	1455.042	105.75682	-104.18604	1361.9435	559.49536	-287.4697	1296.4863	660.56439	-236.41722	1313.7068	744.388	-230.58781	1369.2664	864.46057	-229.66479	1413.275	705.22284	-302.04791	1473.0038	842.78796	-319.18774	1457.8749	792.28497	-327.69681	1438.416	771.08929	-326.34369	1474.1021	756.7691	-316.78613	1386.2642	503.28909	-292.19229	1338.0702	470.77719	-248.20387	1547.089	291.4881	-270.26395	1499.2716	275.75134	-226.51198	1605.8517	202.41522	-254.81384	1383.7378	417.49411	-190.41333	1404.3032	398.1167	-183.44792	1387.208	384.55948	-213.69164	1686.4319	214.83191	-214.53265	1502.0551	97.122017	-218.80063	1520.7601	165.65683	-218.1689	1508.5524	140.87831	-209.4846	1508.4417	142.965	-246.99432
396	3.95	1427.6326	1456.3096	-137.13065	1414.833	1428.6254	-129.27875	1419.6235	1431.0227	-167.18513	1434.864	1078.5627	-10.460503	1447.9869	1085.2183	-258.89999	1602.9125	1096.0593	-53.16613	1611.2648	1096.6068	-170.40494	1614.7111	1153.6241	-118.18629	1623.6605	1129.0809	-129.13638	1623.2375	1124.14	-90.006348	1490.6461	546.02362	-1.3014762	1400.9158	627.76764	-56.845467	1383.3373	712.52448	-37.196232	1385.6483	850.69653	-11.054717	1492.0895	698.59747	24.978516	1484.7936	845.44684	56.837376	1489.3823	798.83466	60.652092	1492.0629	769.75433	56.39016	1454.7637	779.01825	58.923313	1491.5988	464.66547	2.4284582	1441.2543	453.63315	-57.095684	1497.4299	206.64366	-72.805267	1564.3696	100.11489	-43.605782	1451.3069	399.05826	-86.53376	1449.6943	371.01187	-79.242622	1467.0664	374.69324	-113.27429	1640.6382	65.850754	-76.337143	1421.5292	68.814697	-82.214088	1482.1962	116.8702	-76.753059	1457.7441	101.63953	-66.101486	1454.8096	105.65797	-104.38644	1341.7214	564.13928	-287.93939	1277.2179	667.02222	-237.33698	1295.9735	750.83276	-231.17648	1354.2557	869.40448	-229.49384	1394.7628	709.69952	-303.43155	1457.1798	846.40509	-320.36319	1441.0078	795.93634	-328.8829	1421.5648	774.98792	-327.18622	1455.6167	760.11322	-318.24207	1365.1836	506.89511	-291.91272	1314.1158	476.06494	-249.5285	1513.4161	285.58438	-270.02481	1463.1221	272.09851	-227.21518	1566.0985	192.14375	-254.30843	1355.3478	419.86276	-192.13983	1374.9202	399.02701	-184.83821	1357.5099	386.85196	-215.58052	1647.0153	198.79146	-213.56145	1454.8527	95.016975	-219.77434	1478.6349	161.91873	-219.13571	1464.7866	137.912	-210.52156	1464.7321	140.23782	-248.15637
397	3.96	1413.1898	1457.0017	-137.26421	1400.344	1429.3099	-129.44402	1405.4507	1431.635	-167.35188	1421.1084	1078.7546	-10.444638	1434.2947	1086.9377	-258.4082	1589.0782	1097.4271	-53.372261	1597.4774	1098.113	-170.57632	1600.6727	1154.639	-118.24845	1610.4962	1130.7227	-128.71291	1608.4562	1124.79	-90.054924	1487.7567	546.57043	-1.6012998	1395.9403	626.44934	-56.216267	1376.1132	710.7298	-36.517254	1375.5702	848.95624	-10.48318	1486.0321	699.28284	24.423969	1475.3218	845.77582	56.417084	1481.3694	799.32068	60.172482	1484.2644	770.22986	55.669144	1447.0189	778.96594	58.912514	1489.7423	465.16653	2.2822886	1439.3802	453.57468	-56.897346	1497.2294	206.79646	-72.765869	1564.0159	100.59592	-43.949059	1449.2877	399.23788	-86.500847	1447.7677	371.17017	-78.967514	1465.3883	374.6153	-113.21544	1640.535	66.26368	-76.494278	1421.3105	68.56356	-82.344101	1482.0266	116.62941	-76.968597	1457.3073	101.76786	-66.176605	1454.4912	105.51978	-104.61407	1322.6068	567.96991	-288.17737	1258.5413	672.76508	-238.27019	1278.6287	756.68054	-231.69705	1339.4395	873.63892	-229.37047	1376.6251	713.83649	-304.9198	1440.6322	849.53955	-321.80096	1423.8395	799.21295	-330.45483	1403.7789	778.58966	-329.06824	1438.1277	763.14581	-320.14569	1344.5682	509.35239	-291.88135	1291.0348	480.91	-250.76347	1479.3699	279.12848	-269.92358	1427.9539	268.14783	-228.35559	1525.7549	182.11058	-254.46754	1327.2802	421.88654	-193.73871	1345.5386	399.61707	-186.26608	1328.2202	388.89438	-217.48566	1606.0446	182.51859	-213.12985	1407.3903	93.251877	-221.14262	1435.6875	158.25688	-220.14127	1420.6299	135.0063	-211.88409	1420.7993	137.42317	-249.32443
398	3.97	1398.4843	1457.3539	-137.40981	1385.7174	1429.6323	-129.57608	1390.8392	1431.9478	-167.46158	1407.2458	1078.7472	-10.504957	1420.5978	1088.1243	-258.09326	1575.2787	1097.9309	-53.651737	1583.8447	1099.0037	-170.74895	1587.476	1156.0746	-117.96906	1595.2828	1130.8756	-129.16393	1595.3162	1125.8723	-90.006142	1485.0569	547.16553	-1.7268671	1390.9631	624.93677	-55.481068	1368.8875	708.79871	-35.769798	1364.6725	847.44824	-9.6961946	1479.9021	699.89691	24.028139	1465.7836	845.99414	55.93399	1472.776	800.02612	59.870331	1476.5568	770.69873	55.372761	1438.896	778.96918	58.601921	1487.6738	465.69556	2.1249127	1437.4666	453.55875	-56.731354	1495.9963	207.33525	-72.834831	1563.6112	101.10799	-44.211403	1447.3344	399.42368	-86.299309	1446.2512	371.34897	-78.820404	1463.2418	375.06818	-113.19424	1640.3634	66.580093	-76.700134	1421.0675	68.313316	-82.490074	1481.934	116.82873	-77.423676	1456.9719	101.66113	-66.307907	1454.1366	105.36234	-104.84186	1303.7858	571.08429	-288.1528	1240.3951	677.6925	-239.16972	1261.6298	761.70032	-232.10103	1324.7111	877.26569	-229.21466	1358.449	717.23456	-306.53278	1424.4493	852.28101	-323.35648	1407.1276	802.13031	-331.85199	1386.1884	782.17834	-330.76614	1420.7755	765.75403	-322.10852	1324.828	511.02078	-291.57742	1268.7664	485.1691	-251.78516	1444.969	272.37292	-269.92432	1392.1896	264.21817	-229.57765	1484.2997	171.86806	-254.38306	1300.2672	423.32599	-194.96295	1316.8322	400.00244	-187.56183	1299.2404	390.8147	-219.1377	1564.4432	166.95891	-212.4655	1359.7064	92.074554	-222.77797	1392.5725	154.8101	-221.52118	1374.7144	133.4906	-213.38774	1376.448	135.01439	-250.78929
399	3.98	1383.6899	1457.4243	-137.50255	1371.1237	1429.6055	-129.6754	1376.1935	1431.8943	-167.52518	1393.4963	1078.288	-10.648082	1406.8035	1088.8431	-257.91614	1561.139	1098.0265	-54.283615	1570.2806	1099.6188	-171.04602	1573.9098	1156.3372	-118.09019	1581.3566	1131.0946	-129.45309	1581.6613	1126.1898	-90.215286	1482.2238	547.69702	-1.7500139	1386.0101	623.30249	-54.596184	1361.5956	706.68762	-34.889587	1353.7673	845.81384	-8.6938496	1473.731	700.41266	23.798464	1456.1353	846.15625	55.598576	1464.5957	800.18744	59.058903	1468.6436	771.28259	55.00275	1430.6313	778.323	58.731846	1485.7394	466.23404	2.0861275	1435.5319	453.51926	-56.42366	1495.3062	207.53935	-72.897186	1563.2456	101.66449	-44.236225	1445.5963	399.62589	-86.069069	1444.6345	371.55612	-78.584816	1461.7607	375.14218	-113.03284	1640.2495	67.025047	-76.945236	1420.7026	68.085945	-82.589653	1480.96	116.95285	-76.763191	1456.8098	101.48223	-66.493568	1454.0278	105.30935	-104.85137	1286.0575	573.29773	-288.19601	1222.8724	681.7243	-239.76547	1245.0181	765.77448	-232.39885	1309.96	880.02332	-229.0715	1340.6757	720.27045	-307.74612	1408.0603	854.68054	-325.12137	1390.3212	804.52716	-333.28751	1368.9998	784.99176	-331.69223	1403.4983	767.99939	-324.06357	1305.2479	511.63406	-291.46252	1247.2631	488.83044	-252.4406	1409.1869	265.13974	-269.99939	1356.0953	260.44849	-230.62531	1442.2246	162.26668	-254.8911	1273.9683	424.99457	-196.10175	1288.8979	400.47433	-188.58617	1271.1392	392.67542	-220.39946	1521.3906	151.51945	-212.14136	1311.5569	91.924774	-224.57338	1348.9775	152.1333	-223.16632	1329.9219	131.68141	-215.07243	1331.8424	133.38705	-252.41524
